<svg xmlns="http://www.w3.org/2000/svg" xmlns:xlink="http://www.w3.org/1999/xlink" width="500" zoomAndPan="magnify" viewBox="0 0 375 374.999991" height="500" preserveAspectRatio="xMidYMid meet" version="1.0"><defs><g/><clipPath id="fd4ad22b6e"><path d="M 0 77.589844 L 58 77.589844 L 58 122.628906 L 0 122.628906 Z M 0 77.589844 " clip-rule="nonzero"/></clipPath></defs><g fill="#edf0f9" fill-opacity="1"><g transform="translate(66.87844, 121.609866)"><g><path d="M 28.140625 -23.875 C 32.242188 -23.707031 35.390625 -22.597656 37.578125 -20.546875 C 39.710938 -18.492188 40.78125 -15.894531 40.78125 -12.75 C 40.78125 -8.644531 39.414062 -5.503906 36.6875 -3.328125 C 33.96875 -1.109375 30.070312 0 25 0 L 3.515625 0 L 3.515625 -43.984375 L 26.890625 -43.984375 C 30.953125 -43.984375 34.113281 -43.101562 36.375 -41.34375 C 38.632812 -39.582031 39.765625 -37.148438 39.765625 -34.046875 C 39.765625 -31.117188 38.738281 -28.796875 36.6875 -27.078125 C 34.632812 -25.359375 31.785156 -24.4375 28.140625 -24.3125 Z M 13.1875 -36.4375 L 13.1875 -25.515625 L 22.875 -25.515625 C 25.132812 -25.515625 26.867188 -26.015625 28.078125 -27.015625 C 29.296875 -28.023438 29.90625 -29.445312 29.90625 -31.28125 C 29.90625 -32.914062 29.378906 -34.195312 28.328125 -35.125 C 27.285156 -36 25.78125 -36.4375 23.8125 -36.4375 Z M 24.375 -7.546875 C 26.382812 -7.546875 27.976562 -8.046875 29.15625 -9.046875 C 30.320312 -10.054688 30.90625 -11.4375 30.90625 -13.1875 C 30.90625 -14.863281 30.28125 -16.207031 29.03125 -17.21875 C 27.726562 -18.21875 26.007812 -18.71875 23.875 -18.71875 L 13.1875 -18.71875 L 13.1875 -7.546875 Z M 24.375 -7.546875 "/></g></g></g><g fill="#edf0f9" fill-opacity="1"><g transform="translate(108.842155, 121.609866)"><g><path d="M 4.59375 -38.265625 C 3.539062 -39.265625 3.015625 -40.476562 3.015625 -41.90625 C 3.015625 -43.332031 3.539062 -44.566406 4.59375 -45.609375 C 5.59375 -46.617188 6.804688 -47.125 8.234375 -47.125 C 9.691406 -47.125 10.945312 -46.617188 12 -45.609375 C 13.007812 -44.609375 13.515625 -43.375 13.515625 -41.90625 C 13.515625 -40.476562 13.007812 -39.265625 12 -38.265625 C 10.945312 -37.253906 9.691406 -36.75 8.234375 -36.75 C 6.804688 -36.75 5.59375 -37.253906 4.59375 -38.265625 Z M 3.828125 0 L 3.828125 -32.421875 L 12.75 -32.421875 L 12.75 0 Z M 3.828125 0 "/></g></g></g><g fill="#edf0f9" fill-opacity="1"><g transform="translate(125.426621, 121.609866)"><g><path d="M 31.40625 -31.34375 C 33.46875 -29.925781 35.082031 -27.914062 36.25 -25.3125 C 37.425781 -22.71875 38.015625 -19.679688 38.015625 -16.203125 C 38.015625 -12.734375 37.425781 -9.695312 36.25 -7.09375 C 35.082031 -4.5 33.46875 -2.507812 31.40625 -1.125 C 29.3125 0.289062 26.925781 1 24.25 1 C 21.488281 1 19.039062 0.140625 16.90625 -1.578125 C 14.769531 -3.242188 13.238281 -5.734375 12.3125 -9.046875 L 11.9375 -9.046875 L 11.6875 0 L 3.015625 0 L 3.015625 -43.984375 L 11.9375 -43.984375 L 11.9375 -23.3125 L 12.3125 -23.3125 C 13.238281 -26.65625 14.769531 -29.1875 16.90625 -30.90625 C 19.039062 -32.582031 21.488281 -33.421875 24.25 -33.421875 C 26.925781 -33.421875 29.3125 -32.726562 31.40625 -31.34375 Z M 26.703125 -8.171875 C 28.253906 -10.097656 29.03125 -12.773438 29.03125 -16.203125 C 29.03125 -19.640625 28.253906 -22.34375 26.703125 -24.3125 C 25.148438 -26.238281 23.078125 -27.203125 20.484375 -27.203125 C 17.929688 -27.203125 15.878906 -26.34375 14.328125 -24.625 C 12.734375 -22.90625 11.9375 -20.726562 11.9375 -18.09375 L 11.9375 -14.265625 C 11.9375 -11.660156 12.734375 -9.503906 14.328125 -7.796875 C 15.878906 -6.078125 17.929688 -5.21875 20.484375 -5.21875 C 23.078125 -5.21875 25.148438 -6.203125 26.703125 -8.171875 Z M 26.703125 -8.171875 "/></g></g></g><g fill="#edf0f9" fill-opacity="1"><g transform="translate(165.066004, 121.609866)"><g><path d="M 3.015625 0 L 3.015625 -43.984375 L 11.9375 -43.984375 L 11.9375 0 Z M 3.015625 0 "/></g></g></g><g fill="#edf0f9" fill-opacity="1"><g transform="translate(180.079969, 121.609866)"><g><path d="M 4.59375 -38.265625 C 3.539062 -39.265625 3.015625 -40.476562 3.015625 -41.90625 C 3.015625 -43.332031 3.539062 -44.566406 4.59375 -45.609375 C 5.59375 -46.617188 6.804688 -47.125 8.234375 -47.125 C 9.691406 -47.125 10.945312 -46.617188 12 -45.609375 C 13.007812 -44.609375 13.515625 -43.375 13.515625 -41.90625 C 13.515625 -40.476562 13.007812 -39.265625 12 -38.265625 C 10.945312 -37.253906 9.691406 -36.75 8.234375 -36.75 C 6.804688 -36.75 5.59375 -37.253906 4.59375 -38.265625 Z M 3.828125 0 L 3.828125 -32.421875 L 12.75 -32.421875 L 12.75 0 Z M 3.828125 0 "/></g></g></g><g fill="#edf0f9" fill-opacity="1"><g transform="translate(196.664436, 121.609866)"><g><path d="M 10.421875 -1.125 C 7.703125 -2.507812 5.566406 -4.519531 4.015625 -7.15625 C 2.429688 -9.800781 1.640625 -12.859375 1.640625 -16.328125 C 1.640625 -19.722656 2.429688 -22.71875 4.015625 -25.3125 C 5.566406 -27.914062 7.703125 -29.925781 10.421875 -31.34375 C 13.109375 -32.726562 16.082031 -33.421875 19.34375 -33.421875 C 22.613281 -33.421875 25.585938 -32.726562 28.265625 -31.34375 C 30.953125 -29.925781 33.09375 -27.914062 34.6875 -25.3125 C 36.226562 -22.71875 37 -19.722656 37 -16.328125 C 37 -12.859375 36.226562 -9.800781 34.6875 -7.15625 C 33.132812 -4.519531 31.015625 -2.507812 28.328125 -1.125 C 25.609375 0.289062 22.613281 1 19.34375 1 C 16.082031 1 13.109375 0.289062 10.421875 -1.125 Z M 25.703125 -8.484375 C 27.203125 -10.285156 27.953125 -12.898438 27.953125 -16.328125 C 27.953125 -19.679688 27.203125 -22.238281 25.703125 -24 C 24.148438 -25.757812 22.03125 -26.640625 19.34375 -26.640625 C 16.625 -26.640625 14.507812 -25.757812 13 -24 C 11.457031 -22.238281 10.6875 -19.679688 10.6875 -16.328125 C 10.6875 -12.898438 11.457031 -10.285156 13 -8.484375 C 14.507812 -6.679688 16.625 -5.78125 19.34375 -5.78125 C 22.03125 -5.78125 24.148438 -6.679688 25.703125 -8.484375 Z M 25.703125 -8.484375 "/></g></g></g><g fill="#edf0f9" fill-opacity="1"><g transform="translate(235.298693, 121.609866)"><g><path d="M 23.9375 -26.890625 L 14.765625 -26.890625 L 14.765625 -10.5625 C 14.765625 -8.96875 15.078125 -7.914062 15.703125 -7.40625 C 16.335938 -6.863281 17.597656 -6.59375 19.484375 -6.59375 C 20.859375 -6.59375 22.320312 -6.65625 23.875 -6.78125 L 23.875 0.0625 C 20.476562 0.3125 18.195312 0.414062 17.03125 0.375 C 13.09375 0.375 10.242188 -0.316406 8.484375 -1.703125 C 6.722656 -3.035156 5.84375 -5.484375 5.84375 -9.046875 L 5.84375 -26.890625 L 0.75 -26.890625 L 0.75 -32.421875 L 5.84375 -32.421875 L 5.84375 -40.90625 L 14.328125 -40.90625 L 14.578125 -32.421875 L 23.9375 -32.421875 Z M 23.9375 -26.890625 "/></g></g></g><g fill="#edf0f9" fill-opacity="1"><g transform="translate(260.615138, 121.609866)"><g><path d="M 34.9375 -14.390625 L 10.171875 -14.390625 C 10.210938 -11.703125 11.050781 -9.585938 12.6875 -8.046875 C 14.320312 -6.492188 16.414062 -5.71875 18.96875 -5.71875 C 20.976562 -5.71875 22.695312 -6.238281 24.125 -7.28125 C 25.507812 -8.289062 26.410156 -9.613281 26.828125 -11.25 L 34.625 -11.25 C 34.28125 -8.601562 33.316406 -6.363281 31.734375 -4.53125 C 30.140625 -2.6875 28.210938 -1.300781 25.953125 -0.375 C 23.691406 0.539062 21.363281 1 18.96875 1 C 13.613281 1 9.382812 -0.503906 6.28125 -3.515625 C 3.1875 -6.535156 1.640625 -10.804688 1.640625 -16.328125 C 1.640625 -19.722656 2.328125 -22.71875 3.703125 -25.3125 C 5.085938 -27.914062 7.035156 -29.925781 9.546875 -31.34375 C 12.054688 -32.726562 15.007812 -33.421875 18.40625 -33.421875 C 21.757812 -33.421875 24.691406 -32.6875 27.203125 -31.21875 C 29.710938 -29.757812 31.640625 -27.789062 32.984375 -25.3125 C 34.285156 -22.800781 34.9375 -20.019531 34.9375 -16.96875 Z M 12.625 -24.75 C 11.15625 -23.457031 10.335938 -21.613281 10.171875 -19.21875 L 26.140625 -19.21875 C 25.972656 -21.570312 25.175781 -23.414062 23.75 -24.75 C 22.28125 -26.050781 20.4375 -26.703125 18.21875 -26.703125 C 15.957031 -26.703125 14.09375 -26.050781 12.625 -24.75 Z M 12.625 -24.75 "/></g></g></g><g fill="#edf0f9" fill-opacity="1"><g transform="translate(297.364787, 121.609866)"><g><path d="M 3.828125 -25.515625 C 5.253906 -28.066406 7.242188 -30.03125 9.796875 -31.40625 C 12.359375 -32.75 15.25 -33.421875 18.46875 -33.421875 C 21.570312 -33.421875 24.316406 -32.859375 26.703125 -31.734375 C 29.046875 -30.554688 30.910156 -28.898438 32.296875 -26.765625 C 33.628906 -24.585938 34.363281 -22.050781 34.5 -19.15625 L 25.640625 -19.15625 C 25.597656 -21.59375 24.925781 -23.457031 23.625 -24.75 C 22.320312 -26.007812 20.601562 -26.640625 18.46875 -26.640625 C 16.039062 -26.640625 14.15625 -25.757812 12.8125 -24 C 11.4375 -22.195312 10.75 -19.726562 10.75 -16.59375 C 10.75 -13.070312 11.4375 -10.390625 12.8125 -8.546875 C 14.15625 -6.703125 16.039062 -5.78125 18.46875 -5.78125 C 20.726562 -5.78125 22.46875 -6.453125 23.6875 -7.796875 C 24.90625 -9.085938 25.554688 -10.96875 25.640625 -13.4375 L 34.5 -13.4375 C 34.40625 -10.34375 33.648438 -7.726562 32.234375 -5.59375 C 30.765625 -3.414062 28.835938 -1.78125 26.453125 -0.6875 C 24.023438 0.4375 21.363281 1 18.46875 1 C 15.289062 1 12.441406 0.351562 9.921875 -0.9375 C 7.367188 -2.195312 5.359375 -4.144531 3.890625 -6.78125 C 2.390625 -9.382812 1.640625 -12.613281 1.640625 -16.46875 C 1.640625 -19.9375 2.367188 -22.953125 3.828125 -25.515625 Z M 3.828125 -25.515625 "/></g></g></g><g fill="#edf0f9" fill-opacity="1"><g transform="translate(332.858043, 121.609866)"><g><path d="M 4.59375 -14.890625 C 6.769531 -16.566406 10.054688 -17.382812 14.453125 -17.34375 C 18.472656 -17.300781 21.28125 -17.632812 22.875 -18.34375 C 24.457031 -19.050781 25.25 -20.222656 25.25 -21.859375 C 25.25 -23.160156 24.707031 -24.289062 23.625 -25.25 C 22.53125 -26.21875 20.8125 -26.703125 18.46875 -26.703125 C 16.039062 -26.703125 14.15625 -26.050781 12.8125 -24.75 C 11.476562 -23.457031 10.707031 -21.722656 10.5 -19.546875 L 1.640625 -19.546875 C 1.765625 -22.097656 2.472656 -24.421875 3.765625 -26.515625 C 5.023438 -28.609375 6.890625 -30.285156 9.359375 -31.546875 C 11.828125 -32.796875 14.84375 -33.421875 18.40625 -33.421875 C 23.644531 -33.421875 27.5625 -32.25 30.15625 -29.90625 C 32.75 -27.519531 34.046875 -24.460938 34.046875 -20.734375 L 34.046875 0 L 25.515625 0 L 25.25 -10.109375 L 24.9375 -10.109375 C 24.519531 -6.554688 23.179688 -3.816406 20.921875 -1.890625 C 18.660156 0.0351562 15.789062 1 12.3125 1 C 9.039062 1 6.398438 0.226562 4.390625 -1.3125 C 2.335938 -2.820312 1.3125 -5.046875 1.3125 -7.984375 C 1.3125 -10.910156 2.40625 -13.210938 4.59375 -14.890625 Z M 11.6875 -5.90625 C 12.519531 -5.195312 13.753906 -4.84375 15.390625 -4.84375 C 17.148438 -4.84375 18.785156 -5.257812 20.296875 -6.09375 C 21.804688 -6.925781 23.019531 -8.035156 23.9375 -9.421875 C 24.8125 -10.804688 25.25 -12.273438 25.25 -13.828125 L 25.25 -18.78125 L 24.9375 -18.78125 C 24.726562 -17.40625 24.3125 -16.296875 23.6875 -15.453125 C 23.019531 -14.617188 21.992188 -13.972656 20.609375 -13.515625 C 19.179688 -13.046875 17.210938 -12.726562 14.703125 -12.5625 C 13.359375 -12.476562 12.3125 -12.101562 11.5625 -11.4375 C 10.757812 -10.757812 10.359375 -9.859375 10.359375 -8.734375 C 10.359375 -7.515625 10.800781 -6.570312 11.6875 -5.90625 Z M 11.6875 -5.90625 "/></g></g></g><g fill="#ff8719" fill-opacity="1"><g transform="translate(0.0000045, 162.250457)"><g><path d="M 32.609375 0 L 28.46875 0 L 24.546875 -9.515625 L 8.671875 -9.515625 L 4.859375 0 L 0.703125 0 L 14.1875 -32.984375 L 18.84375 -32.984375 Z M 10.125 -13.09375 L 23.046875 -13.09375 L 19.890625 -20.78125 C 18.660156 -23.738281 17.59375 -26.488281 16.6875 -29.03125 L 16.40625 -29.03125 C 15.707031 -27.019531 14.671875 -24.316406 13.296875 -20.921875 Z M 10.125 -13.09375 "/></g></g></g><g fill="#ff8719" fill-opacity="1"><g transform="translate(33.313481, 162.250457)"><g><path d="M 6.78125 -15.125 C 7.320312 -18.550781 8.390625 -21.003906 9.984375 -22.484375 C 11.554688 -23.953125 13.867188 -24.6875 16.921875 -24.6875 L 16.921875 -21.296875 C 14.367188 -21.140625 12.34375 -20.609375 10.84375 -19.703125 C 9.332031 -18.753906 8.25 -17.398438 7.59375 -15.640625 C 6.925781 -13.847656 6.59375 -11.523438 6.59375 -8.671875 L 6.59375 0 L 2.828125 0 L 2.828125 -24.3125 L 6.453125 -24.3125 L 6.59375 -15.125 Z M 6.78125 -15.125 "/></g></g></g><g fill="#ff8719" fill-opacity="1"><g transform="translate(50.936164, 162.250457)"><g><path d="M 15.5 -21.484375 L 8.8125 -21.484375 L 8.8125 -6.265625 C 8.8125 -4.972656 9.078125 -4.125 9.609375 -3.71875 C 10.148438 -3.3125 11.078125 -3.109375 12.390625 -3.109375 C 13.242188 -3.109375 14.28125 -3.15625 15.5 -3.25 L 15.5 0.09375 C 14.1875 0.1875 13.023438 0.234375 12.015625 0.234375 C 10.191406 0.234375 8.796875 0.0625 7.828125 -0.28125 C 6.847656 -0.625 6.140625 -1.238281 5.703125 -2.125 C 5.265625 -3 5.046875 -4.300781 5.046875 -6.03125 L 5.046875 -21.484375 L 0.703125 -21.484375 L 0.703125 -24.3125 L 5.046875 -24.3125 L 5.046875 -30.671875 L 8.671875 -30.671875 L 8.8125 -24.3125 L 15.5 -24.3125 Z M 15.5 -21.484375 "/></g></g></g><g fill="#ff8719" fill-opacity="1"><g transform="translate(67.616463, 162.250457)"><g><path d="M 25.125 -11.546875 L 5.421875 -11.546875 C 5.453125 -8.679688 6.238281 -6.46875 7.78125 -4.90625 C 9.3125 -3.332031 11.289062 -2.546875 13.71875 -2.546875 C 15.664062 -2.546875 17.28125 -3.109375 18.5625 -4.234375 C 19.851562 -5.335938 20.6875 -6.769531 21.0625 -8.53125 L 24.921875 -8.53125 C 24.578125 -5.726562 23.382812 -3.484375 21.34375 -1.796875 C 19.269531 -0.0976562 16.726562 0.75 13.71875 0.75 C 10.070312 0.75 7.148438 -0.363281 4.953125 -2.59375 C 2.753906 -4.789062 1.65625 -8.007812 1.65625 -12.25 C 1.65625 -14.925781 2.15625 -17.238281 3.15625 -19.1875 C 4.164062 -21.09375 5.582031 -22.550781 7.40625 -23.5625 C 9.1875 -24.570312 11.257812 -25.078125 13.625 -25.078125 C 15.851562 -25.078125 17.847656 -24.554688 19.609375 -23.515625 C 21.367188 -22.472656 22.734375 -21.078125 23.703125 -19.328125 C 24.648438 -17.535156 25.125 -15.539062 25.125 -13.34375 Z M 7.875 -19.796875 C 6.394531 -18.472656 5.578125 -16.601562 5.421875 -14.1875 L 21.25 -14.1875 C 21.09375 -16.507812 20.335938 -18.363281 18.984375 -19.75 C 17.609375 -21.09375 15.773438 -21.765625 13.484375 -21.765625 C 11.210938 -21.765625 9.34375 -21.109375 7.875 -19.796875 Z M 7.875 -19.796875 "/></g></g></g><g fill="#ff8719" fill-opacity="1"><g transform="translate(94.380328, 162.250457)"><g><path d="M 4.234375 -1.453125 C 2.285156 -2.929688 1.234375 -5.023438 1.078125 -7.734375 L 4.953125 -7.734375 C 5.109375 -6.066406 5.828125 -4.789062 7.109375 -3.90625 C 8.367188 -3 10.097656 -2.546875 12.296875 -2.546875 C 14.210938 -2.546875 15.738281 -2.90625 16.875 -3.625 C 17.96875 -4.320312 18.515625 -5.28125 18.515625 -6.5 C 18.515625 -7.382812 18.265625 -8.078125 17.765625 -8.578125 C 17.234375 -9.078125 16.351562 -9.46875 15.125 -9.75 L 7.96875 -11.40625 C 6.019531 -11.84375 4.492188 -12.597656 3.390625 -13.671875 C 2.265625 -14.734375 1.703125 -16.113281 1.703125 -17.8125 C 1.703125 -20.039062 2.59375 -21.816406 4.375 -23.140625 C 6.132812 -24.429688 8.554688 -25.078125 11.640625 -25.078125 C 14.878906 -25.078125 17.441406 -24.320312 19.328125 -22.8125 C 21.210938 -21.269531 22.15625 -19.195312 22.15625 -16.59375 L 18.28125 -16.59375 C 18.28125 -18.1875 17.6875 -19.457031 16.5 -20.40625 C 15.300781 -21.3125 13.679688 -21.765625 11.640625 -21.765625 C 9.753906 -21.765625 8.257812 -21.421875 7.15625 -20.734375 C 6.03125 -20.046875 5.46875 -19.117188 5.46875 -17.953125 C 5.46875 -17.171875 5.78125 -16.492188 6.40625 -15.921875 C 7 -15.328125 7.816406 -14.90625 8.859375 -14.65625 L 15.875 -13.046875 C 18.175781 -12.515625 19.84375 -11.765625 20.875 -10.796875 C 21.882812 -9.785156 22.390625 -8.398438 22.390625 -6.640625 C 22.390625 -4.378906 21.476562 -2.585938 19.65625 -1.265625 C 17.832031 0.078125 15.378906 0.75 12.296875 0.75 C 8.867188 0.75 6.179688 0.015625 4.234375 -1.453125 Z M 4.234375 -1.453125 "/></g></g></g><g fill="#ff8719" fill-opacity="1"><g transform="translate(117.704469, 162.250457)"><g><path d="M 3.8125 -11.171875 C 5.382812 -12.390625 7.679688 -13 10.703125 -13 C 13.148438 -13 14.96875 -13.0625 16.15625 -13.1875 C 17.351562 -13.320312 18.296875 -13.65625 18.984375 -14.1875 C 19.648438 -14.71875 19.984375 -15.582031 19.984375 -16.78125 C 19.984375 -18.0625 19.414062 -19.222656 18.28125 -20.265625 C 17.15625 -21.265625 15.363281 -21.765625 12.90625 -21.765625 C 10.519531 -21.765625 8.703125 -21.125 7.453125 -19.84375 C 6.191406 -18.519531 5.453125 -16.914062 5.234375 -15.03125 L 1.453125 -15.03125 C 1.453125 -16.851562 1.925781 -18.535156 2.875 -20.078125 C 3.8125 -21.585938 5.160156 -22.796875 6.921875 -23.703125 C 8.648438 -24.617188 10.691406 -25.078125 13.046875 -25.078125 C 16.785156 -25.078125 19.503906 -24.210938 21.203125 -22.484375 C 22.898438 -20.753906 23.75 -18.503906 23.75 -15.734375 L 23.75 0 L 20.171875 0 L 19.984375 -8.109375 L 19.796875 -8.109375 C 19.484375 -5.054688 18.367188 -2.820312 16.453125 -1.40625 C 14.503906 0.03125 12.253906 0.75 9.703125 0.75 C 7.191406 0.75 5.179688 0.15625 3.671875 -1.03125 C 2.160156 -2.195312 1.40625 -3.847656 1.40625 -5.984375 C 1.40625 -8.179688 2.207031 -9.910156 3.8125 -11.171875 Z M 10.65625 -2.453125 C 12.476562 -2.453125 14.109375 -2.859375 15.546875 -3.671875 C 16.960938 -4.492188 18.0625 -5.546875 18.84375 -6.828125 C 19.601562 -8.117188 19.984375 -9.441406 19.984375 -10.796875 L 19.984375 -14.46875 L 19.796875 -14.46875 C 19.640625 -13.519531 19.273438 -12.78125 18.703125 -12.25 C 18.109375 -11.71875 17.148438 -11.3125 15.828125 -11.03125 C 14.515625 -10.71875 12.613281 -10.53125 10.125 -10.46875 C 8.6875 -10.40625 7.539062 -10.023438 6.6875 -9.328125 C 5.84375 -8.609375 5.421875 -7.664062 5.421875 -6.5 C 5.421875 -3.800781 7.164062 -2.453125 10.65625 -2.453125 Z M 10.65625 -2.453125 "/></g></g></g><g fill="#ff8719" fill-opacity="1"><g transform="translate(144.279861, 162.250457)"><g><path d="M 21.90625 -22.625 C 23.507812 -20.988281 24.3125 -18.832031 24.3125 -16.15625 L 24.3125 0 L 20.546875 0 L 20.546875 -14.9375 C 20.546875 -16.945312 19.945312 -18.566406 18.75 -19.796875 C 17.5625 -20.984375 15.992188 -21.578125 14.046875 -21.578125 C 11.816406 -21.578125 10.023438 -20.742188 8.671875 -19.078125 C 7.316406 -17.421875 6.640625 -15.238281 6.640625 -12.53125 L 6.640625 0 L 2.828125 0 L 2.828125 -24.3125 L 6.40625 -24.3125 L 6.640625 -17.25 L 6.921875 -17.25 C 7.242188 -19.601562 8.1875 -21.503906 9.75 -22.953125 C 11.320312 -24.367188 13.253906 -25.078125 15.546875 -25.078125 C 18.191406 -25.078125 20.3125 -24.257812 21.90625 -22.625 Z M 21.90625 -22.625 "/></g></g></g><g fill="#ff8719" fill-opacity="1"><g transform="translate(171.420681, 162.250457)"><g><path d="M 3.8125 -11.171875 C 5.382812 -12.390625 7.679688 -13 10.703125 -13 C 13.148438 -13 14.96875 -13.0625 16.15625 -13.1875 C 17.351562 -13.320312 18.296875 -13.65625 18.984375 -14.1875 C 19.648438 -14.71875 19.984375 -15.582031 19.984375 -16.78125 C 19.984375 -18.0625 19.414062 -19.222656 18.28125 -20.265625 C 17.15625 -21.265625 15.363281 -21.765625 12.90625 -21.765625 C 10.519531 -21.765625 8.703125 -21.125 7.453125 -19.84375 C 6.191406 -18.519531 5.453125 -16.914062 5.234375 -15.03125 L 1.453125 -15.03125 C 1.453125 -16.851562 1.925781 -18.535156 2.875 -20.078125 C 3.8125 -21.585938 5.160156 -22.796875 6.921875 -23.703125 C 8.648438 -24.617188 10.691406 -25.078125 13.046875 -25.078125 C 16.785156 -25.078125 19.503906 -24.210938 21.203125 -22.484375 C 22.898438 -20.753906 23.75 -18.503906 23.75 -15.734375 L 23.75 0 L 20.171875 0 L 19.984375 -8.109375 L 19.796875 -8.109375 C 19.484375 -5.054688 18.367188 -2.820312 16.453125 -1.40625 C 14.503906 0.03125 12.253906 0.75 9.703125 0.75 C 7.191406 0.75 5.179688 0.15625 3.671875 -1.03125 C 2.160156 -2.195312 1.40625 -3.847656 1.40625 -5.984375 C 1.40625 -8.179688 2.207031 -9.910156 3.8125 -11.171875 Z M 10.65625 -2.453125 C 12.476562 -2.453125 14.109375 -2.859375 15.546875 -3.671875 C 16.960938 -4.492188 18.0625 -5.546875 18.84375 -6.828125 C 19.601562 -8.117188 19.984375 -9.441406 19.984375 -10.796875 L 19.984375 -14.46875 L 19.796875 -14.46875 C 19.640625 -13.519531 19.273438 -12.78125 18.703125 -12.25 C 18.109375 -11.71875 17.148438 -11.3125 15.828125 -11.03125 C 14.515625 -10.71875 12.613281 -10.53125 10.125 -10.46875 C 8.6875 -10.40625 7.539062 -10.023438 6.6875 -9.328125 C 5.84375 -8.609375 5.421875 -7.664062 5.421875 -6.5 C 5.421875 -3.800781 7.164062 -2.453125 10.65625 -2.453125 Z M 10.65625 -2.453125 "/></g></g></g><g fill="#ff8719" fill-opacity="1"><g transform="translate(197.996073, 162.250457)"><g><path d="M 2.734375 0 L 2.734375 -32.984375 L 6.5 -32.984375 L 6.5 0 Z M 2.734375 0 "/></g></g></g><g clip-path="url(#fd4ad22b6e)"><path fill="#edf0f9" d="M 53.585938 91.195312 C 53.351562 89.445312 53.316406 86.421875 54.949219 85.40625 C 54.976562 85.390625 54.996094 85.363281 55.023438 85.339844 C 56.355469 84.914062 57.277344 84.3125 56.554688 83.511719 L 36.90625 77.589844 L 5.089844 82.011719 C 5.089844 82.011719 1.449219 82.535156 1.769531 88.195312 C 1.949219 91.273438 2.914062 92.785156 3.757812 93.53125 L 1.148438 94.320312 C 0.425781 95.125 1.347656 95.71875 2.679688 96.144531 C 2.707031 96.167969 2.722656 96.195312 2.757812 96.214844 C 4.382812 97.230469 4.351562 100.25 4.117188 102.007812 C -1.730469 103.664062 0.367188 104.210938 0.367188 104.210938 L 1.652344 104.519531 C 0.75 105.335938 -0.148438 106.878906 0.0234375 109.8125 C 0.34375 115.472656 3.335938 115.863281 3.335938 115.863281 L 24.160156 122.628906 L 55.582031 115.019531 C 55.582031 115.019531 57.679688 114.476562 51.832031 112.8125 C 51.597656 111.066406 51.566406 108.042969 53.195312 107.023438 C 53.226562 107.007812 53.246094 106.980469 53.273438 106.957031 C 54.601562 106.53125 55.523438 105.933594 54.800781 105.132812 L 53.4375 104.71875 C 54.347656 104.167969 55.714844 102.734375 55.929688 99 C 56.078125 96.441406 55.40625 94.9375 54.632812 94.054688 L 57.332031 93.398438 C 57.332031 93.398438 59.433594 92.859375 53.585938 91.195312 Z M 27.300781 91.125 L 32.582031 90.039062 L 50.445312 86.367188 L 53.105469 85.820312 C 52.25 87.378906 52.289062 89.507812 52.429688 90.875 C 52.460938 91.183594 52.496094 91.464844 52.527344 91.683594 L 49.617188 92.40625 L 27.078125 98.011719 Z M 4.597656 96.632812 L 7.261719 97.175781 L 24.410156 100.703125 L 25.90625 101.011719 L 30.402344 101.933594 L 30.621094 108.824219 L 7.457031 103.0625 L 5.171875 102.492188 C 5.207031 102.277344 5.238281 101.992188 5.277344 101.683594 C 5.414062 100.320312 5.449219 98.1875 4.597656 96.632812 Z M 3.5625 87.921875 C 3.53125 86.414062 3.800781 85.328125 4.34375 84.773438 C 4.691406 84.417969 5.097656 84.34375 5.375 84.34375 C 5.527344 84.34375 5.628906 84.367188 5.640625 84.367188 L 19.347656 88.835938 L 26.183594 91.066406 L 25.960938 98.003906 L 6.773438 92.621094 L 5.761719 92.339844 C 5.726562 92.332031 5.671875 92.324219 5.632812 92.324219 C 5.554688 92.3125 3.660156 92.140625 3.5625 87.921875 Z M 24.210938 119.625 L 4.007812 113.960938 C 3.972656 113.949219 3.921875 113.945312 3.882812 113.941406 C 3.800781 113.933594 1.902344 113.761719 1.8125 109.542969 C 1.78125 108.039062 2.046875 106.949219 2.59375 106.394531 C 2.9375 106.039062 3.339844 105.96875 3.625 105.96875 C 3.769531 105.96875 3.878906 105.988281 3.882812 105.988281 C 3.882812 105.988281 3.886719 105.988281 3.882812 105.988281 L 24.433594 112.6875 Z M 50.675781 112.496094 C 50.707031 112.804688 50.742188 113.085938 50.773438 113.304688 L 25.328125 119.632812 L 25.542969 112.746094 L 30.988281 111.625 L 31.792969 111.820312 L 34.800781 110.84375 L 48.6875 107.988281 L 51.347656 107.441406 C 50.5 108.996094 50.535156 111.125 50.675781 112.496094 Z M 52.078125 103.128906 C 52.03125 103.132812 51.984375 103.136719 51.941406 103.152344 L 50.023438 103.691406 L 31.742188 108.8125 L 31.519531 101.875 L 37.515625 99.917969 L 52.039062 95.183594 C 52.039062 95.183594 52.800781 95.015625 53.359375 95.582031 C 53.898438 96.136719 54.171875 97.226562 54.140625 98.734375 C 54.042969 102.953125 52.148438 103.125 52.078125 103.128906 Z M 52.078125 103.128906 " fill-opacity="1" fill-rule="nonzero"/></g></svg>