<svg xmlns="http://www.w3.org/2000/svg" xmlns:xlink="http://www.w3.org/1999/xlink" width="500" zoomAndPan="magnify" viewBox="0 0 375 374.999991" height="500" preserveAspectRatio="xMidYMid meet" version="1.0"><defs><filter x="0%" y="0%" width="100%" height="100%" id="efd7ea4e20"><feColorMatrix values="0 0 0 0 1 0 0 0 0 1 0 0 0 0 1 0 0 0 1 0" color-interpolation-filters="sRGB"/></filter><clipPath id="5f26f7ef4a"><path d="M 216 96.53125 L 229 96.53125 L 229 113 L 216 113 Z M 216 96.53125 " clip-rule="nonzero"/></clipPath><mask id="a56dbcb1f9"><g filter="url(#efd7ea4e20)"><rect x="-37.5" width="450" fill="#000000" y="-37.499999" height="449.999989" fill-opacity="0.8"/></g></mask><clipPath id="042e352439"><path d="M 67 2 L 75.960938 2 L 75.960938 19 L 67 19 Z M 67 2 " clip-rule="nonzero"/></clipPath><clipPath id="ec4f1ece3a"><rect x="0" width="76" y="0" height="82"/></clipPath><mask id="464128abf7"><g filter="url(#efd7ea4e20)"><rect x="-37.5" width="450" fill="#000000" y="-37.499999" height="449.999989" fill-opacity="0.6"/></g></mask><clipPath id="f1b06bc861"><path d="M 0.0390625 45 L 16 45 L 16 61 L 0.0390625 61 Z M 0.0390625 45 " clip-rule="nonzero"/></clipPath><clipPath id="dceec19918"><path d="M 32 0.601562 L 37 0.601562 L 37 14 L 32 14 Z M 32 0.601562 " clip-rule="nonzero"/></clipPath><clipPath id="70524843be"><rect x="0" width="38" y="0" height="63"/></clipPath><clipPath id="e9bf0760bb"><path d="M 214 153 L 229 153 L 229 192.53125 L 214 192.53125 Z M 214 153 " clip-rule="nonzero"/></clipPath><mask id="c017a2573a"><g filter="url(#efd7ea4e20)"><rect x="-37.5" width="450" fill="#000000" y="-37.499999" height="449.999989" fill-opacity="0.55"/></g></mask><clipPath id="338d227500"><path d="M 1 24 L 11 24 L 11 39.53125 L 1 39.53125 Z M 1 24 " clip-rule="nonzero"/></clipPath><clipPath id="fb6b96b7c9"><rect x="0" width="15" y="0" height="40"/></clipPath></defs><path fill="#ffffff" d="M 128.820312 168.519531 C 128.066406 168.519531 127.125 168.664062 126.136719 168.992188 C 124.0625 169.609375 121.75 170.699219 119.816406 172.070312 C 116.800781 174.15625 115.761719 176.003906 115.8125 176.714844 C 115.8125 176.761719 115.8125 176.855469 116.09375 176.996094 L 131.085938 183.960938 C 131.460938 184.148438 131.933594 184.195312 132.5 184.195312 C 134.808594 184.195312 137.921875 182.824219 140.230469 180.832031 C 142.398438 178.9375 143.339844 177.140625 143.246094 176.238281 C 143.246094 176.050781 143.152344 175.910156 142.964844 175.8125 L 130 168.710938 C 130 168.710938 129.578125 168.519531 128.820312 168.519531 Z M 128.820312 168.519531 " fill-opacity="1" fill-rule="nonzero"/><path fill="#ffffff" d="M 157.34375 164.066406 L 146.5 156.632812 C 146.5 156.632812 146.265625 156.492188 145.652344 156.492188 C 145.039062 156.492188 144.144531 156.632812 143.246094 156.917969 C 141.265625 157.484375 139.050781 158.621094 137.117188 159.996094 C 133.675781 162.410156 132.640625 164.496094 132.78125 164.96875 L 145.652344 172.070312 C 146.832031 172.734375 150.648438 171.882812 154.042969 168.945312 C 156.542969 166.769531 157.390625 164.824219 157.34375 164.019531 Z M 157.34375 164.066406 " fill-opacity="1" fill-rule="nonzero"/><path fill="#ffffff" d="M 162.480469 144.414062 C 162.105469 144.414062 161.398438 144.507812 160.359375 144.839844 C 158.519531 145.40625 156.304688 146.542969 154.371094 147.917969 C 150.601562 150.570312 149.5625 152.75 149.660156 153.175781 L 160.171875 160.328125 C 160.171875 160.328125 160.40625 160.46875 160.925781 160.46875 C 162.386719 160.46875 165.121094 159.425781 167.761719 157.152344 C 170.777344 154.546875 171.625 152.324219 171.4375 151.800781 L 162.953125 144.460938 C 162.953125 144.460938 162.765625 144.414062 162.433594 144.414062 Z M 162.480469 144.414062 " fill-opacity="1" fill-rule="nonzero"/><path fill="#ffffff" d="M 177.472656 132.761719 C 175.726562 133.332031 173.652344 134.46875 171.675781 135.839844 L 171.25 136.125 C 168.042969 138.445312 166.628906 140.578125 166.488281 141.289062 L 174.738281 148.535156 C 174.738281 148.535156 174.878906 148.582031 175.117188 148.582031 C 176.386719 148.582031 178.886719 147.539062 181.527344 145.3125 C 184.683594 142.566406 185.769531 140.199219 185.675781 139.628906 L 179.40625 132.242188 C 179.027344 132.382812 178.414062 132.429688 177.425781 132.761719 Z M 177.472656 132.761719 " fill-opacity="1" fill-rule="nonzero"/><path fill="#ffffff" d="M 194.632812 120.6875 C 193.03125 121.253906 191.003906 122.34375 188.976562 123.765625 C 185.34375 126.320312 183.554688 128.640625 183.363281 129.496094 L 189.351562 136.882812 L 189.351562 136.742188 C 190.4375 136.742188 192.839844 135.605469 195.339844 133.472656 C 198.496094 130.773438 200.007812 128.167969 200.007812 127.457031 L 196.140625 120.308594 C 195.8125 120.308594 195.339844 120.402344 194.632812 120.636719 Z M 194.632812 120.6875 " fill-opacity="1" fill-rule="nonzero"/><path fill="#ffffff" d="M 211.746094 108.609375 C 210.285156 109.175781 208.210938 110.3125 206.277344 111.6875 C 202.316406 114.433594 200.382812 116.945312 200.101562 117.796875 L 203.730469 124.902344 C 204.578125 124.757812 206.558594 123.8125 209.058594 121.679688 C 212.453125 118.792969 214.242188 116.042969 214.289062 115.285156 L 212.59375 108.371094 C 212.59375 108.371094 212.121094 108.515625 211.746094 108.65625 Z M 211.746094 108.609375 " fill-opacity="1" fill-rule="nonzero"/><g clip-path="url(#5f26f7ef4a)"><path fill="#ffffff" d="M 216.789062 106.097656 L 218.34375 112.871094 C 219.191406 112.539062 220.796875 111.640625 222.824219 109.839844 C 226.453125 106.714844 228.574219 103.824219 228.714844 103.066406 L 228.953125 96.53125 C 228.953125 96.53125 228.953125 96.53125 228.90625 96.53125 C 227.539062 97.101562 225.605469 98.191406 223.578125 99.609375 C 219.242188 102.640625 217.023438 105.339844 216.789062 106.097656 Z M 216.789062 106.097656 " fill-opacity="1" fill-rule="nonzero"/></g><g mask="url(#a56dbcb1f9)"><g transform="matrix(1, 0, 0, 1, 153, 110)"><g clip-path="url(#ec4f1ece3a)"><path fill="#ffffff" d="M 25.746094 68.371094 L 14.996094 61.125 C 14.996094 61.125 14.714844 60.984375 14.242188 60.984375 C 12.828125 60.984375 10.234375 62.023438 7.785156 64.25 C 5.757812 66.097656 4.957031 67.898438 5.050781 68.75 C 5.050781 68.988281 5.144531 69.128906 5.378906 69.222656 L 18.15625 76.328125 C 19.335938 76.992188 22.164062 76.234375 24.332031 73.535156 C 25.839844 71.640625 26.265625 69.933594 26.121094 69.035156 C 26.027344 68.511719 25.839844 68.371094 25.746094 68.371094 Z M 25.746094 68.371094 " fill-opacity="1" fill-rule="nonzero"/><path fill="#ffffff" d="M 35.644531 56.671875 L 27.113281 49.285156 C 27.113281 49.285156 27.019531 49.238281 26.6875 49.238281 C 25.460938 49.238281 23.105469 50.230469 20.652344 52.457031 C 18.484375 54.445312 17.542969 56.390625 17.636719 57.289062 L 28.339844 64.820312 C 29.09375 65.339844 31.636719 64.535156 33.710938 61.976562 C 35.878906 59.324219 36.070312 57.003906 35.644531 56.625 Z M 35.644531 56.671875 " fill-opacity="1" fill-rule="nonzero"/><path fill="#ffffff" d="M 33.523438 40.664062 C 30.648438 43.269531 29.941406 45.542969 30.128906 46.015625 L 38.757812 53.453125 C 39.699219 53.453125 41.492188 52.457031 43.046875 50.515625 C 45.308594 47.769531 45.6875 45.355469 45.449219 44.925781 L 39.132812 37.398438 C 38.097656 37.492188 35.832031 38.582031 33.570312 40.664062 Z M 33.523438 40.664062 " fill-opacity="1" fill-rule="nonzero"/><path fill="#ffffff" d="M 46.441406 28.917969 C 43.421875 31.667969 42.480469 34.035156 42.574219 34.601562 L 48.5625 41.945312 C 49.175781 41.945312 50.683594 41.089844 52.378906 39.007812 C 54.597656 36.261719 55.398438 33.703125 55.257812 33.085938 L 51.34375 25.792969 C 50.496094 25.9375 48.703125 26.882812 46.394531 28.917969 Z M 46.441406 28.917969 " fill-opacity="1" fill-rule="nonzero"/><path fill="#ffffff" d="M 59.308594 17.125 C 56.339844 19.875 54.925781 22.429688 54.972656 23.140625 L 58.652344 30.246094 C 59.214844 29.960938 60.394531 29.15625 61.761719 27.453125 C 64.117188 24.5625 65.25 21.769531 65.15625 21.105469 L 63.457031 14.144531 C 62.65625 14.476562 61.195312 15.375 59.308594 17.125 Z M 59.308594 17.125 " fill-opacity="1" fill-rule="nonzero"/><g clip-path="url(#042e352439)"><path fill="#ffffff" d="M 67.277344 11.773438 L 68.738281 18.359375 C 69.304688 17.933594 70.105469 17.175781 71.097656 15.992188 C 73.6875 12.816406 75.101562 9.878906 75.148438 9.21875 L 75.386719 2.917969 C 74.679688 3.390625 73.59375 4.148438 72.226562 5.429688 C 69.023438 8.363281 67.371094 11.113281 67.324219 11.824219 Z M 67.277344 11.773438 " fill-opacity="1" fill-rule="nonzero"/></g></g></g></g><g mask="url(#464128abf7)"><g transform="matrix(1, 0, 0, 1, 191, 129)"><g clip-path="url(#70524843be)"><g clip-path="url(#f1b06bc861)"><path fill="#ffffff" d="M 0.472656 52.308594 C 0.519531 52.6875 0.664062 52.921875 0.898438 53.066406 L 11.457031 60.359375 C 12.257812 60.878906 13.625 60.214844 14.617188 58.039062 C 15.699219 55.527344 15.417969 53.113281 14.757812 52.496094 L 6.226562 45.109375 C 6.226562 45.109375 6.128906 45.109375 6.082031 45.109375 C 4.90625 45.109375 3.347656 46.101562 2.03125 47.902344 C 0.664062 49.75 0.378906 51.453125 0.519531 52.355469 Z M 0.472656 52.308594 " fill-opacity="1" fill-rule="nonzero"/></g><path fill="#ffffff" d="M 10.421875 36.394531 C 8.441406 39.046875 8.394531 41.414062 8.816406 41.792969 L 17.304688 49.324219 C 17.632812 49.324219 18.671875 48.707031 19.519531 46.859375 C 20.746094 44.113281 20.554688 41.605469 20.132812 41.082031 L 13.816406 33.503906 C 13.484375 33.601562 12.023438 34.261719 10.46875 36.441406 Z M 10.421875 36.394531 " fill-opacity="1" fill-rule="nonzero"/><path fill="#ffffff" d="M 18.90625 24.933594 C 16.785156 27.726562 16.550781 30.09375 16.785156 30.523438 L 22.773438 37.910156 C 23.101562 37.671875 23.808594 36.960938 24.421875 35.589844 C 25.648438 32.84375 25.835938 30.09375 25.554688 29.527344 L 21.6875 22.234375 C 21.167969 22.519531 20.132812 23.324219 18.953125 24.933594 Z M 18.90625 24.933594 " fill-opacity="1" fill-rule="nonzero"/><path fill="#ffffff" d="M 27.4375 13.519531 C 25.363281 16.265625 24.65625 18.824219 24.847656 19.4375 L 28.335938 26.304688 C 28.617188 25.925781 28.996094 25.3125 29.417969 24.410156 C 30.691406 21.570312 31.210938 18.679688 31.070312 17.921875 L 29.464844 11.246094 C 28.996094 11.671875 28.289062 12.382812 27.484375 13.519531 Z M 27.4375 13.519531 " fill-opacity="1" fill-rule="nonzero"/><g clip-path="url(#dceec19918)"><path fill="#ffffff" d="M 34.039062 13.992188 C 34.039062 13.992188 34.273438 13.519531 34.414062 13.234375 C 35.6875 10.394531 36.632812 7.265625 36.679688 6.273438 L 36.867188 0.96875 C 36.585938 1.300781 36.300781 1.679688 35.972656 2.105469 C 33.757812 5.042969 32.765625 7.789062 32.859375 8.453125 L 34.085938 13.992188 Z M 34.039062 13.992188 " fill-opacity="1" fill-rule="nonzero"/></g></g></g></g><g clip-path="url(#e9bf0760bb)"><g mask="url(#c017a2573a)"><g transform="matrix(1, 0, 0, 1, 214, 153)"><g clip-path="url(#fb6b96b7c9)"><g clip-path="url(#338d227500)"><path fill="#ffffff" d="M 3.070312 24.425781 C 2.789062 24.660156 2.269531 25.324219 1.800781 26.601562 C 0.902344 29.113281 1.328125 31.621094 2.035156 32.238281 L 10.285156 39.53125 C 10.425781 39.246094 10.519531 38.726562 10.566406 37.96875 C 10.707031 35.457031 10 32.664062 9.246094 31.8125 L 3.070312 24.472656 Z M 3.070312 24.425781 " fill-opacity="1" fill-rule="nonzero"/></g><path fill="#ffffff" d="M 6.605469 13.816406 C 6.371094 14.195312 6.136719 14.714844 5.851562 15.472656 C 4.816406 18.265625 5.144531 20.777344 5.570312 21.34375 L 10.992188 27.976562 C 10.992188 27.738281 11.039062 27.40625 11.085938 27.074219 C 11.226562 24.472656 10.757812 21.488281 10.285156 20.585938 L 6.65625 13.816406 Z M 6.605469 13.816406 " fill-opacity="1" fill-rule="nonzero"/><path fill="#ffffff" d="M 9.90625 4.34375 C 8.871094 7.230469 8.871094 9.929688 9.152344 10.546875 L 11.605469 15.378906 C 11.699219 12.773438 11.511719 10.261719 11.273438 9.316406 L 10 4.105469 C 10 4.105469 9.90625 4.296875 9.90625 4.390625 Z M 9.90625 4.34375 " fill-opacity="1" fill-rule="nonzero"/></g></g></g></g></svg>